HIERARCHY
ROOT hip
{
  OFFSET 0 0 0
  CHANNELS 6 Xposition Yposition Zposition Zrotation Yrotation Xrotation
  JOINT abdomen
  {
    OFFSET 0 20.6881 -0.73152
    CHANNELS 3 Zrotation Xrotation Yrotation
    JOINT chest
    {
      OFFSET 0 11.7043 -0.48768
      CHANNELS 3 Zrotation Xrotation Yrotation
      JOINT neck
      {
        OFFSET 0 22.1894 -2.19456
        CHANNELS 3 Zrotation Xrotation Yrotation
        JOINT head
        {
          OFFSET -0.24384 7.07133 1.2192
          CHANNELS 3 Zrotation Xrotation Yrotation
          JOINT leftEye
          {
            OFFSET 4.14528 8.04674 8.04672
            CHANNELS 3 Zrotation Xrotation Yrotation
            End Site
            {
              OFFSET 1 0 0
            }
          }
          JOINT rightEye
          {
            OFFSET -3.6576 8.04674 8.04672
            CHANNELS 3 Zrotation Xrotation Yrotation
            End Site
            {
              OFFSET 1 0 0
            }
          }
        }
      }
      JOINT rCollar
      {
        OFFSET -2.68224 19.2634 -4.8768
        CHANNELS 3 Zrotation Xrotation Yrotation
        JOINT rShldr
        {
          OFFSET -8.77824 -1.95073 1.46304
          CHANNELS 3 Zrotation Xrotation Yrotation
          JOINT rForeArm
          {
            OFFSET -28.1742 -1.7115 0.48768
            CHANNELS 3 Zrotation Xrotation Yrotation
            JOINT rHand
            {
              OFFSET -22.5879 0.773209 7.07136
              CHANNELS 3 Zrotation Xrotation Yrotation
              JOINT rThumb1
              {
                OFFSET -1.2192 -0.487915 3.41376
                CHANNELS 3 Zrotation Xrotation Yrotation
                JOINT rThumb2
                {
                  OFFSET -3.37035 -0.52449 3.41376
                  CHANNELS 3 Zrotation Xrotation Yrotation
                  End Site
                  {
                    OFFSET -1.78271 -1.18214 1.43049
                  }
                }
              }
              JOINT rIndex1
              {
                OFFSET -7.75947 0.938293 5.60832
                CHANNELS 3 Zrotation Xrotation Yrotation
                JOINT rIndex2
                {
                  OFFSET -2.54057 -0.884171 1.56538
                  CHANNELS 3 Zrotation Xrotation Yrotation
                  End Site
                  {
                    OFFSET -1.62519 -0.234802 1.16502
                  }
                }
              }
              JOINT rMid1
              {
                OFFSET -8.24714 1.18213 3.41376
                CHANNELS 3 Zrotation Xrotation Yrotation
                JOINT rMid2
                {
                  OFFSET -3.10165 -0.590103 1.0647
                  CHANNELS 3 Zrotation Xrotation Yrotation
                  End Site
                  {
                    OFFSET -2.48547 -0.328903 0.83742
                  }
                }
              }
              JOINT rRing1
              {
                OFFSET -8.82822 0.546677 1.51678
                CHANNELS 3 Zrotation Xrotation Yrotation
                JOINT rRing2
                {
                  OFFSET -2.60934 -0.819778 -0.0198488
                  CHANNELS 3 Zrotation Xrotation Yrotation
                  End Site
                  {
                    OFFSET -2.33842 -0.294052 0.168128
                  }
                }
              }
              JOINT rPinky1
              {
                OFFSET -8.27202 -0.0477905 -0.4584
                CHANNELS 3 Zrotation Xrotation Yrotation
                JOINT rPinky2
                {
                  OFFSET -1.82734 -0.647385 -0.700984
                  CHANNELS 3 Zrotation Xrotation Yrotation
                  End Site
                  {
                    OFFSET -1.69225 -0.51767 -0.607171
                  }
                }
              }
            }
          }
        }
      }
      JOINT lCollar
      {
        OFFSET 2.68224 19.2634 -4.8768
        CHANNELS 3 Zrotation Xrotation Yrotation
        JOINT lShldr
        {
          OFFSET 8.77824 -1.95073 1.46304
          CHANNELS 3 Zrotation Xrotation Yrotation
          JOINT lForeArm
          {
            OFFSET 28.1742 -1.7115 0.48768
            CHANNELS 3 Zrotation Xrotation Yrotation
            JOINT lHand
            {
              OFFSET 22.5879 0.773209 7.07136
              CHANNELS 3 Zrotation Xrotation Yrotation
              JOINT lThumb1
              {
                OFFSET 1.2192 -0.487915 3.41376
                CHANNELS 3 Zrotation Xrotation Yrotation
                JOINT lThumb2
                {
                  OFFSET 3.37035 -0.52449 3.41376
                  CHANNELS 3 Zrotation Xrotation Yrotation
                  End Site
                  {
                    OFFSET 1.78271 -1.18214 1.43049
                  }
                }
              }
              JOINT lIndex1
              {
                OFFSET 7.75947 0.938293 5.60832
                CHANNELS 3 Zrotation Xrotation Yrotation
                JOINT lIndex2
                {
                  OFFSET 2.54057 -0.884171 1.56538
                  CHANNELS 3 Zrotation Xrotation Yrotation
                  End Site
                  {
                    OFFSET 1.62519 -0.234802 1.16502
                  }
                }
              }
              JOINT lMid1
              {
                OFFSET 8.24714 1.18213 3.41376
                CHANNELS 3 Zrotation Xrotation Yrotation
                JOINT lMid2
                {
                  OFFSET 3.10165 -0.590103 1.0647
                  CHANNELS 3 Zrotation Xrotation Yrotation
                  End Site
                  {
                    OFFSET 2.48547 -0.328903 0.83742
                  }
                }
              }
              JOINT lRing1
              {
                OFFSET 8.82822 0.546677 1.51678
                CHANNELS 3 Zrotation Xrotation Yrotation
                JOINT lRing2
                {
                  OFFSET 2.60934 -0.819778 -0.0198488
                  CHANNELS 3 Zrotation Xrotation Yrotation
                  End Site
                  {
                    OFFSET 2.33842 -0.294052 0.168128
                  }
                }
              }
              JOINT lPinky1
              {
                OFFSET 8.27202 -0.0477905 -0.4584
                CHANNELS 3 Zrotation Xrotation Yrotation
                JOINT lPinky2
                {
                  OFFSET 1.82734 -0.647385 -0.700984
                  CHANNELS 3 Zrotation Xrotation Yrotation
                  End Site
                  {
                    OFFSET 1.69225 -0.51767 -0.607171
                  }
                }
              }
            }
          }
        }
      }
    }
  }
  JOINT rButtock
  {
    OFFSET -8.77824 4.35084 1.2192
    CHANNELS 3 Zrotation Xrotation Yrotation
    JOINT rThigh
    {
      OFFSET 0 -1.70687 -2.19456
      CHANNELS 3 Zrotation Xrotation Yrotation
      JOINT rShin
      {
        OFFSET 0 -36.8199 0.73152
        CHANNELS 3 Zrotation Xrotation Yrotation
        JOINT rFoot
        {
          OFFSET 0.73152 -45.1104 -5.12064
          CHANNELS 3 Zrotation Xrotation Yrotation
          End Site
          {
            OFFSET -1.1221 -3.69964 12.103
          }
        }
      }
    }
  }
  JOINT lButtock
  {
    OFFSET 8.77824 4.35084 1.2192
    CHANNELS 3 Zrotation Xrotation Yrotation
    JOINT lThigh
    {
      OFFSET 0 -1.70687 -2.19456
      CHANNELS 3 Zrotation Xrotation Yrotation
      JOINT lShin
      {
        OFFSET 0 -36.8199 0.73152
        CHANNELS 3 Zrotation Xrotation Yrotation
        JOINT lFoot
        {
          OFFSET -0.73152 -45.1104 -5.12064
          CHANNELS 3 Zrotation Xrotation Yrotation
          End Site
          {
            OFFSET 1.1221 -3.69964 12.103
          }
        }
      }
    }
  }
}
MOTION
Frames:	4
Frame Time:	0.03333
0.006318672034202265 35.620126370722666 0.02319262769829232 -3.016939878463745 6.7539286613464355 4.705333232879639 -2.2868850231170654 14.94803524017334 3.81376051902771 2.679241180419922 -9.702573776245117 1.1753499507904053 -5.026611328125 15.611844062805176 -3.391129493713379 9.067031860351562 -26.049549102783203 -4.948056221008301 -0.01580546796321869 -0.013909962959587574 -0.024471551179885864 -0.03215489536523819 -0.01254486758261919 0.026644160971045494 0.0379449836909771 -0.03150599077343941 0.019517185166478157 46.7868537902832 36.431514739990234 17.078500747680664 -28.171836853027344 -32.383460998535156 63.30044174194336 -1.5941014289855957 -11.617254257202148 -1.623552918434143 0.02472401037812233 -0.0523797832429409 0.011063605546951294 -0.007005608640611172 0.02178908698260784 -0.013739854097366333 -0.033770255744457245 -0.0071060145273804665 0.024321984499692917 7.7529754638671875 5.4642157554626465 0.40033435821533203 0.0688483789563179 -0.03804728016257286 -0.04038681089878082 2.9145519733428955 0.9416500329971313 0.1273757815361023 -0.01507815346121788 -0.01610865443944931 -0.013765721581876278 10.241575241088867 0.7854557037353516 -0.0003912406973540783 0.014967365190386772 0.0043272352777421474 0.02240769937634468 2.186793327331543 -0.7321081161499023 -0.184273824095726 -0.04293815791606903 0.007881520316004753 0.007341498509049416 -52.15218734741211 38.93723678588867 -29.877138137817383 27.464672088623047 -30.518457412719727 -58.954227447509766 1.9176769256591797 -13.649839401245117 1.9891761541366577 0.01205057930201292 0.019732072949409485 -0.016438931226730347 0.02364838682115078 -0.014488816261291504 -0.042506467550992966 0.05017914995551109 0.035665012896060944 -0.01866842247545719 -7.755882740020752 5.483403205871582 -0.42359039187431335 0.0034079274628311396 0.024165386334061623 -0.029319623485207558 -2.9134788513183594 0.9687961339950562 -0.1437879502773285 0.007149376906454563 0.00804290734231472 -0.0366281196475029 -10.293962478637695 0.7307489514350891 -0.031065549701452255 -0.006097595673054457 0.011656079441308975 -0.0006154285511001945 -2.201852321624756 -0.7069188356399536 0.23146183788776398 -0.008650241419672966 -0.011907343752682209 -0.0019919269252568483 -27.657793045043945 -38.827640533447266 -23.290851593017578 -1.6103696823120117 65.19874572753906 2.6446914672851562 -4.685793399810791 -10.511358261108398 -10.139464378356934 0.022807035595178604 0.0012008212506771088 0.014087459072470665 33.96293640136719 -38.1269416809082 27.113744735717773 1.8109956979751587 66.28636932373047 -2.9689533710479736 5.167657852172852 -10.587930679321289 13.69580364227295
0.03183263023537333 35.67179675179381 0.026182209502134835 -3.1571168899536133 6.554087162017822 4.924428462982178 -2.2280845642089844 14.931697845458984 3.886336326599121 2.6211130619049072 -9.673653602600098 1.1936781406402588 -4.987950325012207 15.587872505187988 -3.2419869899749756 8.975576400756836 -25.934030532836914 -4.7874908447265625 -0.024209411814808846 0.010586930438876152 -0.06806400418281555 -0.05598156154155731 -0.01820148341357708 0.043572746217250824 0.05546513572335243 -0.04730694741010666 0.04722275212407112 46.83599853515625 36.64219665527344 16.828739166259766 -28.263702392578125 -32.51081466674805 63.444339752197266 -1.518107533454895 -11.78641414642334 -1.568618655204773 0.06303473562002182 -0.09157022833824158 0.02703121304512024 0.018558375537395477 0.006364877801388502 -0.027626708149909973 -0.09413576871156693 -0.004707121290266514 0.05826713889837265 7.759018421173096 5.460864543914795 0.3771754205226898 0.11677651107311249 -0.04269887134432793 -0.09818611294031143 2.9401822090148926 0.9124569892883301 0.14926427602767944 -0.05664842575788498 -0.042246051132678986 -0.07130293548107147 10.23391056060791 0.8516601920127869 -0.02856159210205078 0.03875114768743515 -0.0021269088611006737 0.0076994518749415874 2.141138792037964 -0.7554885149002075 -0.15758392214775085 -0.08731215447187424 -0.002610595431178808 0.036321789026260376 -52.035743713378906 38.81745910644531 -30.21869468688965 27.445201873779297 -30.614870071411133 -58.83251953125 2.049631118774414 -13.540552139282227 2.0663092136383057 0.016212042421102524 0.04051981121301651 -0.031009884551167488 0.05944100022315979 -0.04647863283753395 -0.08780412375926971 0.08945780992507935 0.07865578681230545 -0.04888322949409485 -7.774321556091309 5.505492687225342 -0.42357903718948364 0.0320134311914444 0.05400294065475464 -0.055313996970653534 -2.9079525470733643 0.9677160978317261 -0.19544456899166107 -0.005058949813246727 0.0225567277520895 -0.07623404264450073 -10.327006340026855 0.7267770767211914 -0.039877910166978836 -0.05015520751476288 0.04504207521677017 -0.03151348605751991 -2.203279972076416 -0.673721194267273 0.27895838022232056 0.0007249763002619147 -0.025276504456996918 -0.03857536241412163 -27.440256118774414 -38.75527572631836 -23.185150146484375 -1.5489345788955688 65.254150390625 2.5983057022094727 -4.747523307800293 -10.418619155883789 -10.093781471252441 0.08713746815919876 0.012964504770934582 0.024939460679888725 34.057395935058594 -38.30035400390625 27.264528274536133 1.9271060228347778 66.37831115722656 -3.0282392501831055 5.179595470428467 -10.655778884887695 13.519853591918945
-0.05552196743279896 40.35652788085718 -0.3755965180695779 -1.126501202583313 22.32834243774414 -3.4645068645477295 -10.319652557373047 15.039754867553711 -3.1172006130218506 6.471652984619141 -7.603421688079834 -0.3122556209564209 -6.643092632293701 15.501334190368652 -8.537718772888184 10.523153305053711 -21.188013076782227 -14.736762046813965 0.1333279311656952 -0.005874603055417538 -0.0660569965839386 0.10738668590784073 0.007205655798316002 0.026436634361743927 0.12874403595924377 0.01441188994795084 0.23335567116737366 61.69367980957031 20.715957641601562 -7.161269664764404 -24.62934684753418 -21.790586471557617 50.62649154663086 -0.3774929940700531 -0.35085999965667725 -0.2937687635421753 0.029976464807987213 -0.09791170060634613 0.5013900995254517 -0.07361637055873871 0.04100746661424637 -0.0098633524030447 -0.5051096081733704 -0.5027056336402893 -0.21570158004760742 7.951616287231445 4.937756538391113 0.21890291571617126 0.634036660194397 -0.19016133248806 -0.2361469715833664 2.7920281887054443 0.9322007298469543 0.22138415277004242 -0.03960978984832764 0.13608600199222565 0.04072229564189911 10.33945083618164 0.9510712623596191 0.15096600353717804 0.22990909218788147 -0.19312524795532227 0.04405589401721954 1.8307106494903564 -0.8392449617385864 -0.25137650966644287 -0.28843438625335693 0.05833935737609863 0.26772305369377136 -60.6672477722168 51.03476333618164 -13.3160400390625 28.43985366821289 -34.06845474243164 -69.96987915039062 1.5503331422805786 -35.03662109375 5.496628761291504 0.2691287696361542 0.004976428113877773 0.03437531366944313 0.34813210368156433 0.10404403507709503 0.14805836975574493 0.15678319334983826 0.25400522351264954 -0.1395663022994995 -7.802633285522461 5.636415481567383 -0.6836081147193909 0.2142249196767807 0.45660653710365295 -0.08916076272726059 -2.820221424102783 0.7227867841720581 -0.22967053949832916 0.3080708384513855 0.004480736795812845 -0.4154163897037506 -10.303579330444336 0.6102384924888611 0.19706009328365326 -0.1093183383345604 0.06830751895904541 0.05801074951887131 -2.0525503158569336 -0.6038774847984314 0.29875171184539795 0.03747203201055527 -0.11505917459726334 0.2342795878648758 -36.81257247924805 -55.54545593261719 -22.83186149597168 -0.5161053538322449 52.87701416015625 0.6645779013633728 1.987424612045288 9.714183807373047 11.631092071533203 0.47299057245254517 -6.109607966209296e-06 0.3761260211467743 8.678540229797363 3.2711074352264404 -0.1317102164030075 -0.4215487539768219 38.08083724975586 -2.1733245849609375 14.282296180725098 -17.448808670043945 37.1970100402832
-0.10798091518796456 40.05621812343006 -0.35557796732399777 0.558792233467102 21.221172332763672 -5.336391925811768 -9.869131088256836 15.583234786987305 -0.7454098463058472 6.712916374206543 -6.81592321395874 -0.20361359417438507 -5.837340831756592 15.981000900268555 -8.029969215393066 10.87009334564209 -19.96977996826172 -13.51413631439209 0.15444350242614746 0.30973947048187256 -0.22279255092144012 0.0699903815984726 -0.22848576307296753 0.44398951530456543 0.2901707589626312 0.043196097016334534 -0.18461614847183228 63.846431732177734 24.40522003173828 -5.148827075958252 -23.8762264251709 -18.482540130615234 48.71284866333008 0.2694128155708313 -1.064701795578003 -0.19523856043815613 0.2134421169757843 -0.10700402408838272 0.4915604293346405 -0.16523794829845428 0.4606116712093353 0.059963956475257874 -0.3715052604675293 -0.12705549597740173 -0.03499831631779671 7.6378092765808105 5.570013999938965 0.0320361852645874 0.4497065544128418 0.04281840845942497 0.282566100358963 3.155271530151367 0.8644294142723083 0.22692301869392395 -0.5229899287223816 -0.11292251199483871 0.1830563098192215 10.112884521484375 1.4482903480529785 0.4701198637485504 0.6667229533195496 0.1625748723745346 0.18591256439685822 1.9509096145629883 -1.0169508457183838 -0.692000687122345 -0.0023882181849330664 -0.07200069725513458 -0.37352797389030457 -59.33222579956055 49.08143615722656 -16.792255401611328 28.431974411010742 -33.601497650146484 -71.46587371826172 1.8371366262435913 -35.71937561035156 5.504480361938477 -0.3274684548377991 0.40792563557624817 -0.3017773926258087 0.010520846582949162 -0.2798527777194977 -0.4271785616874695 0.35129207372665405 0.2984306812286377 0.5600011944770813 -7.828380584716797 5.510817527770996 -0.5691109895706177 0.3048548698425293 0.29290494322776794 -0.061119258403778076 -3.338275671005249 1.0291966199874878 -0.18329846858978271 0.24964945018291473 0.18152010440826416 -0.3065522015094757 -10.335947036743164 0.7896038293838501 -0.13964587450027466 0.10588375478982925 -0.45476433634757996 -0.14506453275680542 -2.2015795707702637 -0.9563152194023132 0.23940815031528473 0.1955874264240265 -0.2502317726612091 0.16889527440071106 -34.23545837402344 -52.84919738769531 -20.271791458129883 -0.5657592415809631 48.90940856933594 0.7255091071128845 0.5365615487098694 14.537677764892578 11.806922912597656 -0.35440680384635925 0.2524909973144531 0.48090776801109314 9.059280395507812 5.010975360870361 -0.9137082695960999 -0.3092125952243805 43.6755256652832 -2.2274281978607178 16.949249267578125 -17.90924835205078 39.575538635253906
